<?xml version="1.0" encoding="UTF-8"?>
<svg id="a" fill="#64ffda" data-name="Capa 1" xmlns="http://www.w3.org/2000/svg"  viewBox="0 0 30.35 7.1">
  <path d="m16.51,7.04c-.87.06-1.73.08-2.6.03-.34-.02-.13-.22-.08-.3.44-.78.49-1.6.35-2.45-.04-.23-.1-.45-.38-.41-.31.04-.31.29-.26.52.15.73.04,1.42-.29,2.07-.27.54-.3.56-.9.51-.56-.04-.6-.08-.61-.62-.05-2,0-3.99.09-5.99.01-.28.11-.35.38-.35.73,0,1.45,0,2.18-.02.25,0,.38.02.32.32-.08.4.03.8.04,1.21,0,.23.15.34.38.34.22,0,.26-.18.26-.35,0-.42-.07-.83-.04-1.25.01-.19.05-.27.26-.27.8.01,1.59,0,2.39,0,.21,0,.29.08.32.28.16.85.14,1.7.15,2.56.01,1.12,0,2.23-.09,3.35,0,.05,0,.09,0,.14-.04.54-.47.83-1,.68-.09-.03-.13-.1-.17-.17-.39-.58-.64-1.19-.52-1.93.03-.2.04-.43.05-.65,0-.23-.11-.36-.33-.38-.19-.02-.28.1-.32.3-.2,1.01-.13,1.51.43,2.84Z" style="stroke-width: 0px;"/>
  <path d="m3.73,7.07c-1.02.03-2.04.02-3.07-.03-.62-.03-.64-.04-.65-.65C0,4.38-.02,2.38.08.37.09.14.13.04.39.05c1.14.02,2.28,0,3.44,0,0,.13-.11.19-.17.27-.51.65-.95,1.34-1.32,2.07-.11.22-.15.43.09.55.24.12.39-.05.51-.26.48-.87.98-1.74,1.65-2.48.15-.05.22-.28.42-.18.18.1.12.29.14.45.11.68.07,1.37.13,2.06.03.32-.11.44-.38.53-.45.15-.47.2-.23.62.37.65.99,1.01,1.59,1.38.5.31,1.05.55,1.44,1.02.07.08.14.16.19.26.31.59.22.74-.43.73-.83-.02-1.66-.03-2.5-.04-.18,0-.3-.06-.43-.2-.65-.73-1.19-1.54-1.62-2.42-.15-.32-.42-.38-.61-.16-.12.15-.05.29.02.43.38.74.8,1.46,1.33,2.1.05.06.3.13.07.28Z" style="stroke-width: 0px;"/>
  <path d="m22.72.03c.09,0,.19,0,.28,0,.3,0,.6.03.89,0,.33-.03.37.15.4.4.08.65.1,1.3.1,1.96,0,1.38,0,2.76-.09,4.13-.02.31-.11.46-.45.49-.56.05-1.12.02-1.67.06-.22.02-.22-.14-.24-.27-.07-.52-.05-1.04,0-1.56,0-.12.01-.25-.03-.35-.06-.14-.2-.21-.35-.18-.17.04-.24.18-.25.35-.05.67-.08,1.35.05,2.05-.65-.03-1.28-.06-1.9-.09-.25-.01-.29-.15-.31-.38-.1-1.47.02-2.95,0-4.42,0-.64.06-1.27.07-1.91,0-.2.07-.26.27-.26.51,0,1.02,0,1.53-.01.07,0,.14,0,.21,0,.5,0,1,0,1.5,0Zm-.67,1.55c.02-.23,0-.45-.29-.47-.29-.03-.34.2-.35.42-.02.29-.05.59-.06.88,0,.21.1.34.31.35.21,0,.32-.12.33-.33.01-.28.03-.57.05-.85Z" style="stroke-width: 0px;"/>
  <path d="m26.51.04c.28.06.67-.13.8.08.12.19-.02.55-.04.83-.02.32-.04.64,0,.95,0,.24,0,.49.02.73.03.31.18.39.51.27.18-.11.13-.29.13-.45-.04-.68-.05-1.35,0-2.03.02-.27.07-.43.41-.4.48.04.98.03,1.46,0,.33-.02.4.12.43.4.08,1.05.12,2.11.11,3.17-.02,1.01-.02,2.02-.1,3.02-.02.27-.13.38-.38.39-.57.03-1.14.06-1.71.09-.87-.02-1.73-.06-2.6-.07-.32,0-.47-.12-.47-.46,0-.76-.02-1.52-.03-2.28,0-.09-.06-.23.13-.22.66.04,1.33.02,1.94.33.23.12.47.25.44.54-.04.32-.31.43-.59.49-.24.05-.56.05-.49.4.07.37.39.27.64.22.87-.17,1.34-.91.98-1.6-.27-.51-.76-.74-1.3-.85-.49-.09-.98-.21-1.49-.19-.18,0-.25-.04-.24-.24.02-.96,0-1.92.06-2.89.01-.17.06-.22.23-.23.38,0,.76-.02,1.14-.03Z" style="stroke-width: 0px;"/>
  <path d="m7.92,5.52c-.34-.42-.75-.6-1.16-.77-.32-.13-.58-.33-.86-.52-.12-.08-.13-.18-.13-.31.03-1.21.07-2.42.09-3.64,0-.18.05-.24.24-.24,1.51,0,3.02,0,4.53-.02.25,0,.29.12.31.32.1,1.2.16,2.39.11,3.59-.04.89-.01,1.78-.1,2.67-.02.25-.11.35-.36.38-.58.07-1.17.04-1.74.1-.17.02-.19-.06-.21-.2-.09-.57-.07-1.14-.02-1.71.01-.17.03-.33.03-.5,0-.17-.08-.32-.25-.34-.17-.02-.29.11-.32.27-.06.28-.1.55-.16.9Zm.82-3.83c0-.07,0-.18,0-.28,0-.2-.09-.31-.29-.33-.2-.01-.32.11-.34.29-.04.35-.07.71-.09,1.06-.01.2.12.31.3.32.19.01.32-.08.34-.28.02-.25.05-.5.07-.78Z" style="stroke-width: 0px;"/>
</svg>